<svg width="120" height="120" viewBox="0 0 120 120" fill="none" xmlns="http://www.w3.org/2000/svg">
<path d="M95.7214 93.108H87.8894V100.94H95.7214V93.108Z" fill="white"/>
<path d="M95.7214 85.2761H87.8894V93.108H95.7214V85.2761Z" fill="white"/>
<path d="M103.553 77.4441H95.7214V85.2761H103.553V77.4441Z" fill="white"/>
<path d="M87.8893 93.108H80.0574V100.94H87.8893V93.108Z" fill="white"/>
<path d="M104.43 48.96H96.5979V56.792H104.43V48.96Z" fill="white"/>
<path d="M80.0575 85.2761H72.2256V93.108H80.0575V85.2761Z" fill="white"/>
<path d="M72.2255 77.4441H64.3936V85.2761H72.2255V77.4441Z" fill="white"/>
<path d="M60.7216 92.0752H52.8896V99.9071H60.7216V92.0752Z" fill="white"/>
<path d="M54.5247 51.7845L50.6086 58.5667L46.6926 65.3499L38.8606 78.9143L34.9446 85.6975L31.0286 92.4798L24.2463 88.5638L28.1614 81.7815L32.0774 74.9993L35.9934 68.2161L39.9094 61.4339L43.8254 54.6507L47.7415 47.8684L54.5247 51.7845ZM82.1418 49.6741L80.7834 52.0257L80.7844 52.0266L80.0637 53.2737L86.8469 57.1897L85.1829 60.0706L91.9661 63.9866L88.05 70.7698L81.2668 66.8538L82.9309 63.972L76.1477 60.0559L76.8674 58.8079L70.0852 54.8929L74.0012 48.1106L75.3596 45.7581L82.1418 49.6741ZM76.7629 43.3264L72.8469 50.1096L68.9309 56.8919L62.1487 52.9759L66.0647 46.1936L69.9807 39.4104L76.7629 43.3264ZM62.8811 29.4778L69.6633 33.3938L65.7473 40.177L61.8313 46.9593L57.9153 53.7425L44.3508 45.9104L48.2659 39.1272L52.1819 32.345L56.0979 25.5618L62.8811 29.4778ZM42.5422 26.8108L43.9465 24.3802L50.7297 28.2962L46.8137 35.0784L42.8977 41.8616L36.1145 37.9456L37.2678 35.9456L30.4866 32.0305L31.844 29.678L35.76 22.8958L42.5422 26.8108ZM33.6819 26.4944L29.7659 33.2776L22.9836 29.3616L26.8997 22.5784L33.6819 26.4944ZM25.2356 25.4602L21.3196 32.2434L14.5374 28.3274L18.4534 21.5442L25.2356 25.4602Z" fill="white"/>
</svg>
