<svg width="120" height="120" viewBox="0 0 120 120" fill="none" xmlns="http://www.w3.org/2000/svg">
<path d="M95.7211 93.108H87.8892V100.94H95.7211V93.108Z" fill="white"/>
<path d="M95.7211 85.2761H87.8892V93.108H95.7211V85.2761Z" fill="white"/>
<path d="M103.553 77.4441H95.7214V85.2761H103.553V77.4441Z" fill="white"/>
<path d="M87.8891 93.108H80.0571V100.94H87.8891V93.108Z" fill="white"/>
<path d="M104.43 48.96H96.5979V56.792H104.43V48.96Z" fill="white"/>
<path d="M80.0575 85.2761H72.2256V93.108H80.0575V85.2761Z" fill="white"/>
<path d="M72.2253 77.4441H64.3933V85.2761H72.2253V77.4441Z" fill="white"/>
<path d="M60.7216 92.0751H52.8896V99.9071H60.7216V92.0751Z" fill="white"/>
<path d="M78.1674 40.0245L71.567 33.4241C70.3903 32.2474 68.4882 32.2474 67.3115 33.4241L55.0638 45.6718C53.8871 46.8485 53.8871 48.7506 55.0638 49.9273L55.4686 50.3322L21.7959 84.0049C20.5348 85.266 20.5348 87.3073 21.7959 88.5683L23.0147 89.7872C24.2758 91.0482 26.3171 91.0482 27.5781 89.7872L61.2509 56.1144L61.6558 56.5193C62.8324 57.696 64.7346 57.696 65.9112 56.5193L78.159 44.2716C79.3357 43.0949 79.3357 41.1928 78.159 40.0161L78.1674 40.0245Z" fill="white"/>
<path d="M88.2176 77.122C88.808 75.6037 88.42 65.9244 85.9612 60.3278C84.4598 56.9031 81.8365 51.6481 80.2422 50.0244C78.648 48.3964 78.3528 49.2146 77.969 49.5182C77.5852 49.8177 72.1108 55.3764 72.1108 55.3764C72.1108 55.3764 70.7907 56.0681 72.2627 57.7003C73.7346 59.3324 76.7164 62.8836 78.3401 65.3466C79.9639 67.8097 83.3969 73.3009 84.135 75.4434C84.8773 77.5859 85.9949 78.7879 86.6191 78.7204C87.2433 78.6529 87.6229 78.6445 88.2134 77.1262L88.2176 77.122Z" fill="white"/>
<path d="M61.5756 31.3491C59.9476 29.7548 54.6926 27.1315 51.2722 25.6301C45.6755 23.1755 35.9963 22.7833 34.478 23.3737C32.9597 23.9642 32.947 24.3438 32.8837 24.9679C32.8205 25.5921 34.0183 26.714 36.1608 27.4521C38.3033 28.1944 43.7945 31.6232 46.2575 33.247C48.7206 34.8707 52.2717 37.8525 53.9039 39.3244C55.5361 40.7963 56.2278 39.4763 56.2278 39.4763C56.2278 39.4763 61.7823 34.0019 62.0859 33.6181C62.3854 33.2343 63.2036 32.9391 61.5798 31.3449L61.5756 31.3491Z" fill="white"/>
</svg>
