<svg width="61" height="26" viewBox="0 0 61 26" fill="none" xmlns="http://www.w3.org/2000/svg">
<path d="M5 14.6667H7.5V7.33333H5V14.6667ZM0 7.33333H5V4.88889H0V7.33333ZM5 4.88889H7.5V0H5V4.88889ZM7.5 7.33333H12.5V4.88889H7.5V7.33333Z" fill="#8807FF"/>
<path d="M13.5 21.5111H16V16.6222H13.5V21.5111ZM11 16.6222H13.5V14.1778H11V16.6222ZM16 16.6222H18.5V14.1778H16V16.6222ZM13.5 14.1778H16V11.7333H13.5V14.1778Z" fill="#8807FF"/>
<rect x="28.5625" y="6.69586" width="2.4375" height="2.4375" fill="#8807FF"/>
<rect x="40.8003" y="23.2584" width="2.4375" height="2.4375" fill="#8807FF"/>
<rect x="57.9331" y="16.6959" width="2.4375" height="2.4375" fill="#8807FF"/>
</svg>
