<svg width="71" height="29" viewBox="0 0 71 29" fill="none" xmlns="http://www.w3.org/2000/svg">
<path d="M60.9785 20H63.4785V12.5H60.9785V20ZM49.4785 28.5H51.9785V21H49.4785V28.5ZM44.4785 21H49.4785V18.5H44.4785V21ZM49.4785 18.5H51.9785V13.5H49.4785V18.5ZM51.9785 21H56.9785V18.5H51.9785V21ZM53.4785 10H58.4785V7.5H53.4785V10ZM58.4785 12.5H60.9785V10H58.4785V12.5ZM63.4785 12.5H65.9785V10H63.4785V12.5ZM58.4785 7.5H60.9785V5H58.4785V7.5ZM63.4785 7.5H65.9785V5H63.4785V7.5ZM65.9785 10H70.9785V7.5H65.9785V10ZM60.9785 5H63.4785V0H60.9785V5Z" fill="#8807FF"/>
<rect x="29.4927" y="24" width="2.4375" height="2.4375" fill="#8807FF"/>
<rect x="14.666" y="13.0312" width="2.4375" height="2.4375" fill="#8807FF"/>
<rect y="21.5625" width="2.4375" height="2.4375" fill="#8807FF"/>
</svg>
