<svg width="24" height="24" viewBox="0 0 24 24" fill="none" xmlns="http://www.w3.org/2000/svg">
<g clip-path="url(#clip0_40_54)">
<path d="M8.90361 22.3213V17.1606C8.90361 16.1874 8.90361 15.7012 8.6012 15.3988C8.29879 15.0964 7.81265 15.0964 6.83936 15.0964H6.32329C4.86283 15.0964 4.13311 15.0964 3.68104 15.5505C3.2269 16.0036 3.2269 16.7333 3.2269 18.1928V22.3213H8.90361ZM8.90361 22.3213H15.0964M8.90361 22.3213V16.1285C8.90361 14.6691 8.90361 13.9394 9.35775 13.4863C9.80982 13.0321 10.5395 13.0321 12 13.0321C13.4605 13.0321 14.1891 13.0321 14.6423 13.4863C15.0964 13.9394 15.0964 14.6691 15.0964 16.1285V22.3213M15.0964 22.3213H20.7731V20.257C20.7731 18.7976 20.7731 18.0679 20.319 17.6148C19.8659 17.1606 19.1361 17.1606 17.6767 17.1606H17.1606C16.1873 17.1606 15.7012 17.1606 15.3988 17.4631C15.0964 17.7655 15.0964 18.2516 15.0964 19.2249V22.3213ZM1.67871 22.3213H22.3213M12.7132 2.27529L13.4398 3.74091C13.5015 3.85072 13.5855 3.94634 13.6865 4.02156C13.7875 4.09677 13.9032 4.1499 14.0261 4.1775L15.3431 4.39734C16.1853 4.53874 16.3835 5.15493 15.7766 5.76285L14.7527 6.79498C14.6629 6.89658 14.5971 7.01699 14.5599 7.14737C14.5228 7.27774 14.5153 7.41478 14.538 7.54843L14.8311 8.82621C15.0623 9.83769 14.5297 10.2289 13.6421 9.70042L12.4077 8.96348C12.2814 8.89797 12.1412 8.86378 11.999 8.86378C11.8567 8.86378 11.7165 8.89797 11.5902 8.96348L10.3558 9.70042C9.47232 10.2289 8.93561 9.83357 9.16681 8.82621L9.45993 7.54843C9.48264 7.41478 9.47515 7.27774 9.438 7.14737C9.40085 7.01699 9.33499 6.89658 9.24525 6.79498L8.22241 5.76285C7.61965 5.15493 7.81369 4.53874 8.6559 4.39734L9.97187 4.1775C10.0941 4.14926 10.209 4.09573 10.3093 4.02035C10.4095 3.94498 10.4929 3.84943 10.554 3.73988L11.2806 2.27425C11.6769 1.47951 12.321 1.47951 12.7132 2.27425" stroke="#8E8E8E" stroke-width="1.8" stroke-linecap="round" stroke-linejoin="round"/>
</g>
<defs>
<clipPath id="clip0_40_54">
<rect width="24" height="24" fill="white"/>
</clipPath>
</defs>
</svg>
