<svg width="24" height="24" viewBox="0 0 24 24" fill="none" xmlns="http://www.w3.org/2000/svg">
<path d="M12 14.353C14.7365 14.353 16.9465 15.2404 18.4561 16.4389C19.9917 17.6582 20.7226 19.1232 20.7227 20.2612C20.7227 20.6067 20.5851 20.9378 20.3408 21.1821C20.0965 21.4264 19.7654 21.5639 19.4199 21.5639H4.58008C4.23457 21.5639 3.90349 21.4264 3.65918 21.1821C3.41489 20.9378 3.27734 20.6067 3.27734 20.2612C3.27737 19.1232 4.0083 17.6582 5.54395 16.4389C7.05346 15.2404 9.26349 14.353 12 14.353ZM12 2.436C13.1598 2.436 14.2717 2.89714 15.0918 3.71725C15.9119 4.53735 16.373 5.64924 16.373 6.80904C16.373 7.96885 15.9119 9.08074 15.0918 9.90084C14.2717 10.7209 13.1598 11.1821 12 11.1821C10.8402 11.1821 9.72831 10.7209 8.9082 9.90084C8.0881 9.08074 7.62695 7.96885 7.62695 6.80904C7.62695 5.64924 8.0881 4.53735 8.9082 3.71725C9.72831 2.89714 10.8402 2.436 12 2.436Z" stroke="#8E8E8E" stroke-width="2"/>
</svg>
